<svg xmlns="http://www.w3.org/2000/svg" width="111" height="50" viewBox="0 0 111 50">
    <g fill="none" fill-rule="evenodd">
        <path fill="#FCAF17" d="M34.627 25.533c-.398 1.924-1.25 6.155-1.25 6.155l-.063.312H2.044L6.918 8h34.774c2.659 0 5.653.643 7.41 2.917.936 1.21 1.367 2.702 1.367 4.249a9.14 9.14 0 0 1-.19 1.832c-.476 2.34-1.812 4.41-3.605 5.875-2.307 1.884-5.173 2.66-8.067 2.66h-3.98zM99.315 16.896c-3.946 8.931-5.674 12.831-5.677 12.836l-.103.234h-8.403l-.014-.393-.452-13.137L81.564 31l-6.883-9.039L78.081 5h14.13l.012.396c0 .011.11 3.95.282 9.896l4.214-10.05L96.82 5H111l-5.005 24.966h-9.298l.099-.493c.001-.004.656-3.266 2.519-12.577"/>
        <path fill="#FEFEFE" d="M67.926 33.297c-2.368.451-4.764.725-7.18.725-3.004 0-6.287-.47-9.022-1.73-3.839-1.766-5.994-4.8-6.282-8.986l-.017-.24.214-.117c2.674-1.451 4.752-3.923 5.393-6.891.131-.607.203-1.227.203-1.848 0-1.411-.396-2.758-1.209-3.922l-.165-.237.187-.221c2.087-2.453 4.718-4.347 7.684-5.646C61.246 2.644 65.074 2 68.907 2c2.114 0 4.168.25 6.221.75l.36.088-.076.356-.065.3a26.84 26.84 0 0 1-.352 1.354c-.063.224-.136.45-.197.673l-.086.353-.365-.073c-1.41-.286-2.737-.56-4.184-.56-4.418 0-8.544 1.546-11.621 4.702-2.651 2.72-4.257 6.413-4.306 10.19-.039 2.899.97 5.81 3.152 7.82 2.36 2.175 5.485 2.747 8.6 2.152.203-.039.405-.078.608-.12a9.944 9.944 0 0 0 2.562-.883l1.465-6.355 7.085 8.624L66.704 39l1.222-5.703z"/>
        <path fill="#161717" d="M104.634 35.586l6.284-29.603H77.441l.18-.621c.112-.377.405-1.38.604-2.345l.346-1.643-1.63-.405a26.907 26.907 0 0 0-6.557-.804c-7.381 0-13.185 2.293-17.327 5.818H6.544L.259 35.586h67.304c-.41 1.96-1.421 6.748-1.421 6.748l9.567-6.748h28.925zm-26.66-4.205l-6.337-7.851-1.331 5.875c-1.358.726-2.343.93-3.439 1.143-7.388 1.437-12.314-3.947-12.229-10.55.1-7.65 6.241-15.562 16.337-15.562 1.5 0 2.746.264 4.268.578.017-.065.385-1.254.612-2.357a25.093 25.093 0 0 0-6.138-.754c-8.493 0-14.737 3.233-18.592 7.845.829 1.206 1.279 2.642 1.279 4.216a9.46 9.46 0 0 1-.212 1.965c-.589 2.775-2.473 5.559-5.592 7.282.643 9.482 10.565 10.565 14.945 10.565 2.492 0 5.023-.296 7.688-.846l-1.143 5.426 9.884-6.975zM16.196 21.012c.781 0 1.368.214 1.697.618.19.238.288.537.288.864 0 .118-.012.24-.039.366-.25 1.186-1.392 2.015-2.773 2.015h-2.015c.15-.715.716-3.377.82-3.863h2.022zm23.086-7.807c1.416 0 2.352.275 2.789.813.193.238.288.54.288.905 0 .167-.02.348-.06.542-.348 1.632-1.704 2.426-4.147 2.426h-1.404l.993-4.686h1.541zM30.12 7.313h-.234c-.734 3.457-1.53 6.783-2.25 10.177.918 1.138 1.387 2.546 1.387 4.092 0 .566-.061 1.15-.189 1.745-.29 1.376-1.147 3.802-3.628 5.615l-.253 1.196h9.42s1.227-5.791 1.35-6.358h4.399c6.836 0 10.757-4.061 11.612-8.087a8.222 8.222 0 0 0 .187-1.72c0-1.502-.45-2.862-1.317-3.935-1.44-1.784-3.971-2.725-7.313-2.725H30.119zm-1.897 0H7.882L3.04 30.138h13.568c8.357 0 10.542-4.418 11.099-7.051.4-1.877.062-3.602-.952-4.854-1.266-1.565-3.46-2.36-6.52-2.36h-4.748l.479-2.258h11.337l1.408-6.302h-.489zm80.242 0h-12.98l-4.902 11.042-.335-11.042h-13.46l-3.3 15.545 6.275 7.78 3.582-15.88.561 15.38h7.796s5.45-11.633 7.103-15.165l-3.217 15.165h8.52l4.847-22.825h-.49zm-44.631 41.77l-1.616-11.295H56.4l-6.347 11.295h4.32l1.274-2.436h3.384l.258 2.436h4.544zM59.109 44h-2.401l1.911-3.533h.063L59.11 44zm-9.412-2.872l-1.689 7.955H43.69l1.688-7.955h-3.803l.71-3.34h11.927l-.711 3.34h-3.804zm-18.799 3.76h-.257c-.854 0-1.328-.725-1.103-1.792.226-1.065.992-1.79 1.88-1.79h.242l-.762 3.583zm6.112-6.164h-.677l.36-1.694h-4.32l-.359 1.694h-.677c-3.24 0-5.3 1.889-5.828 4.372-.602 2.84 1.102 4.375 3.986 4.375h.662l-.384 1.806h4.32l.382-1.806h.662c2.884 0 5.242-1.534 5.844-4.375.528-2.483-.733-4.372-3.971-4.372zm-1.921 6.165h-.258l.76-3.582h.242c.887 0 1.346.724 1.12 1.79-.228 1.066-1.01 1.792-1.864 1.792zm-9.318 4.194l-1.615-11.295h-5.818l-6.347 11.295h4.318l1.276-2.436h3.384l.258 2.436h4.544zM21.048 44h-2.402l1.912-3.533h.062L21.048 44zM7.414 49.083l.884-4.164H5.413l-.885 4.164H.21l2.4-11.295h4.32l-.831 3.905h2.886l.828-3.905h4.32l-2.399 11.295H7.414z"/>
    </g>
</svg>
