<svg version="1" xmlns="http://www.w3.org/2000/svg" xmlns:xlink="http://www.w3.org/1999/xlink" width="25" height="25" viewBox="0 0 870.9 870.9"><defs><path id="a" d="M0 0h870.9v870.9H0z"/></defs><clipPath id="b"><use xlink:href="#a" overflow="visible"/></clipPath><path clip-path="url(#b)" fill-rule="evenodd" clip-rule="evenodd" fill="#FFF" d="M870.9 435.5C870.9 195 676 0 435.5 0S0 195 0 435.5 195 871 435.5 871s435.4-195 435.4-435.5"/><defs><path id="c" d="M589.5 421.3C540 508.3 476.2 587.6 414 642.6c-23.4 20.7-43.6 33.4-67 48.5-107.8 69.6-179.8 56.5-227.3 1.4l-.4 1.3c74.9 91.5 188.7 150 316.1 150 158.3 0 295.6-90.1 363.3-221.9l11-24c34.1-74.1 15.1-149.4-108.2-212.6-24.2-12.4-45-23.4-73.7-33.1-11.6 22.5-28 51.1-38.3 69.1"/></defs><clipPath id="d"><use xlink:href="#c" overflow="visible"/></clipPath><linearGradient id="e" gradientUnits="userSpaceOnUse" y1="870.894" x2="1" y2="870.894" gradientTransform="scale(371.0885) rotate(126 -221.244 -434.51)"><stop offset="0" stop-color="#D1232C"/><stop offset="1" stop-color="#EC2029"/></linearGradient><path clip-path="url(#d)" fill="url(#e)" d="M1077.6 522.1l-484.1 666.2L-114.4 674 369.7 7.7"/><g><defs><path id="f" d="M415.3 27.6L389 30.1c-81.2 7.5-136.9 61.6-130 200 1.3 27.2 2.3 50.7 8.1 80.4 25.3-1.1 58.3-1.2 79-1.3 100.1-.7 200.7 15 279.4 41.3 29.6 9.9 50.8 21.1 75.5 33.8 114.3 58.5 139 127.4 114.9 196.1l1.4-.3c41.8-110.6 35.5-238.4-28.2-348.8-75.6-131-212.9-204.2-354-204.2-6.6 0-13.2.2-19.8.5"/></defs><clipPath id="g"><use xlink:href="#f" overflow="visible"/></clipPath><linearGradient id="h" gradientUnits="userSpaceOnUse" y1="870.919" x2="1" y2="870.919" gradientTransform="scale(377.1952) rotate(7 -7125.165 -429.383)"><stop offset="0" stop-color="#F28827"/><stop offset="1" stop-color="#F8C121"/></linearGradient><path clip-path="url(#g)" fill="url(#h)" d="M261.1-46.3L926 35.4l-75.9 618.5-664.9-81.7"/></g><g><defs><path id="i" d="M81.9 231.4c-79.2 137-69.8 301 10.5 425.5l15.3 21.5c47.1 66.5 121.8 87.7 238.2 12.6 22.9-14.8 42.8-27.3 65.6-47.3-13.6-21.4-30.2-49.9-40.6-67.8-50.6-86.4-87.3-181.3-103.9-262.6-6.2-30.6-7.1-54.5-8.5-82.3C252.1 102.8 299.4 47 371 33.5l-1-1C253.1 51.6 145.6 121 81.9 231.4"/></defs><clipPath id="j"><use xlink:href="#i" overflow="visible"/></clipPath><linearGradient id="k" gradientUnits="userSpaceOnUse" y1="871.062" x2="1" y2="871.062" gradientTransform="scale(363.5045) rotate(-114 283.902 -434.89)"><stop offset="0" stop-color="#85AE40"/><stop offset="1" stop-color="#AFCE3A"/></linearGradient><path clip-path="url(#j)" fill="url(#k)" d="M70.3 918l-340.2-764.1 613.7-273.2L684 644.8"/></g></svg>