<svg width="156" height="100" viewBox="0 0 156 100" fill="none" xmlns="http://www.w3.org/2000/svg">
    <circle cx="50" cy="50" r="50" fill="white"></circle>
    <path d="M124.8 21.6183V33.2183C125.9 33.2183 127.3 33.2183 128.7 33.1183C130.1 32.9183 131.4 32.5183 132 31.8183C132.4 31.2183 132.6 29.4183 132.6 27.6183C132.6 25.8183 132.4 23.9183 132 23.3183C131.7 22.8183 131.2 22.5183 130.7 22.2183C130.1 21.9183 129.5 21.7183 128.8 21.7183C128.4 21.6183 126 21.6183 124.8 21.6183ZM120.8 35.0183V34.1183V33.0183V18.4183V17.9183H121.3H127.9C128.8 17.9183 129.7 18.0183 130.6 18.1183C131.5 18.3183 132.4 18.5183 133.2 18.9183C133.9 19.2183 134.4 19.6183 134.9 20.1183C135.4 20.6183 135.8 21.2183 136 21.8183C136.4 22.6183 136.5 24.9183 136.5 27.2183C136.5 29.8183 136.3 32.5183 136 33.3183C135.7 34.0183 135.3 34.5183 134.9 35.0183C134.4 35.5183 133.9 35.9183 133.2 36.2183C132.3 36.6183 131.5 36.9183 130.6 37.0183C129.7 37.2183 128.8 37.2183 127.9 37.2183C127.1 37.2183 126.2 37.2183 125.2 37.2183H124.8V44.4183V44.9183H124.3H121.3H120.8V44.4183V37.3183V35.8183V35.0183Z" fill="white"></path>
    <path d="M151.2 33.2183V21.6183C150.1 21.6183 147.7 21.6183 147.2 21.7183C146.9 21.7183 146.6 21.8183 146.3 21.9183C146 22.0183 145.7 22.1183 145.4 22.2183C145.1 22.3183 144.9 22.5183 144.7 22.7183C144.5 22.9183 144.3 23.1183 144.1 23.4183C143.7 24.0183 143.5 25.8183 143.5 27.7183C143.5 29.5183 143.7 31.3183 144.1 31.9183C144.6 32.7183 145.9 33.0183 147.4 33.2183C148.6 33.2183 150 33.2183 151.2 33.2183ZM155.2 18.0183V33.0183V34.1183V38.6183C155.2 39.3183 155.1 39.9183 155 40.5183C154.8 41.1183 154.6 41.6183 154.3 42.0183C154 42.4183 153.6 42.8183 153.3 43.1183C152.9 43.4183 152.5 43.7183 152 43.9183C151.6 44.1183 151.1 44.3183 150.6 44.4183C150.1 44.5183 149.6 44.6183 149.2 44.7183C148.7 44.8183 148.3 44.8183 147.9 44.8183C147.7 44.8183 147.5 44.8183 147.3 44.8183H146.8C146.4 44.8183 146 44.8183 145.7 44.8183C145.4 44.8183 145.1 44.7183 144.8 44.7183C144.5 44.6183 144.3 44.6183 144.1 44.5183C143.9 44.4183 143.7 44.3183 143.5 44.3183L143.2 44.1183V43.8183V41.7183V41.2183H143.7H145.9C146.2 41.2183 146.5 41.2183 146.7 41.2183C147 41.2183 147.3 41.2183 147.7 41.1183C148 41.1183 148.3 41.0183 148.6 40.9183C148.9 40.8183 149.2 40.7183 149.5 40.6183C150.2 40.3183 150.6 39.9183 150.9 39.6183C151.2 39.2183 151.3 38.8183 151.3 38.4183C151.3 38.0183 151.3 37.6183 151.3 37.1183H148.2C148 37.1183 147.7 37.1183 147.4 37.1183C147.1 37.1183 146.8 37.1183 146.6 37.0183C146.3 37.0183 146 36.9183 145.7 36.9183C145.4 36.9183 145.1 36.8183 144.8 36.7183C144.5 36.6183 144.2 36.5183 143.9 36.4183C143.6 36.3183 143.3 36.2183 143 36.0183C142.7 35.9183 142.4 35.7183 142.1 35.5183C141.8 35.3183 141.6 35.1183 141.3 34.9183C141.1 34.7183 140.8 34.4183 140.6 34.1183C140.4 33.8183 140.2 33.5183 140.1 33.2183C139.8 32.5183 139.6 29.7183 139.6 27.1183C139.6 24.8183 139.8 22.6183 140.1 21.7183C140.2 21.4183 140.4 21.0183 140.6 20.8183C140.8 20.5183 141 20.2183 141.3 20.0183C141.5 19.8183 141.8 19.5183 142.1 19.4183C142.4 19.2183 142.7 19.0183 143 18.9183C143.3 18.8183 143.6 18.6183 143.9 18.5183C144.2 18.4183 144.5 18.3183 144.8 18.2183C145.1 18.1183 145.4 18.1183 145.7 18.0183C146 17.9183 146.3 17.9183 146.6 17.9183C146.9 17.9183 147.2 17.9183 147.4 17.9183C147.7 17.9183 147.9 17.9183 148.2 17.9183H155.3V18.0183H155.2Z" fill="white"></path>
    <path d="M113.9 17.9183H116.9H117.4V18.4183V31.2183C117.4 31.7183 117.3 32.2183 117.2 32.6183C117.1 33.1183 116.9 33.5183 116.7 33.9183C116.5 34.3183 116.2 34.6183 115.9 35.0183C115.6 35.3183 115.3 35.6183 114.9 35.9183C114.5 36.2183 114.2 36.4183 113.7 36.6183C113.3 36.8183 112.9 37.0183 112.4 37.1183C111.9 37.2183 111.5 37.3183 111 37.4183C110.5 37.5183 110 37.5183 109.5 37.5183C109 37.5183 108.5 37.5183 108 37.4183C107.5 37.3183 107.1 37.2183 106.6 37.1183C106.1 37.0183 105.7 36.8183 105.3 36.6183C104.9 36.4183 104.5 36.2183 104.1 35.9183C103.7 35.6183 103.4 35.3183 103.1 35.0183C102.8 34.7183 102.6 34.3183 102.3 33.9183C102.1 33.5183 101.9 33.1183 101.8 32.6183C101.7 32.1183 101.6 31.7183 101.6 31.2183V18.4183V17.9183H102.1H105.1H105.6V18.4183V29.8183C105.6 31.6183 106.6 32.8183 107.8 33.3183C108.3 33.5183 108.8 33.6183 109.3 33.6183C109.8 33.6183 110.3 33.5183 110.8 33.3183C112 32.8183 113 31.6183 113 29.8183V18.4183V17.9183H113.9Z" fill="white"></path>
    <path d="M78.0002 59C77.5002 59 75.0003 58.2183 73.5003 57.8183C70.6003 57.0183 67.5003 56.2183 64.5003 54.7183C68.1003 51.2183 71.2002 47.5183 73.7002 43.5183V36.3183C73.0002 37.8183 72.3003 39.3183 71.4003 40.8183C68.9003 45.1183 65.5003 49.2183 61.5003 52.9183C58.0003 50.4183 55.0003 46.6183 53.5003 40.4183C51.3003 31.7183 44.0002 27.2 36.0002 25.5L31.5002 26.5C31.3002 26.9 34.5002 28.5 34.5002 28.5C41.6002 29.7 48.3003 33.5183 50.2003 41.2183C52.0003 48.1183 55.1003 52.4183 58.9003 55.3183C55.9003 57.8183 52.6003 60.0183 49.2003 61.9183C48.3003 62.4183 47.4003 62.9183 46.5003 63.3183C42.3003 65.4183 38.0003 66.9183 33.8003 67.7183L35.1003 70.9183C39.4003 70.0183 43.8003 68.4183 48.0003 66.3183C48.9003 65.8183 49.9003 65.3183 50.8003 64.8183C54.7003 62.6183 58.5003 60.0183 61.8003 57.1183C65.3003 59.0183 69.1003 60.1183 72.6003 61.0183C75.8003 61.9183 79.7002 63.6 81.5002 65L78.0002 59Z" fill="black"></path>
    <path d="M29.5 86.7184C22.1 82.5184 16.2 75.7184 12.5 68.0184C16.3 70.7184 21.3 71.9184 26.7 71.9184C28.3 71.9184 29.9 71.8184 31.6 71.5184L31.3 70.0184L30.3 68.2184C29.1 68.3184 27.9 68.4184 26.7 68.4184C17.9 68.5184 10.6 65.0184 8.8 55.8184C8.8 55.6184 8.7 55.4184 8.7 55.2184C8.1 52.4184 8.5 47.6184 9.1 44.1184C9.4 42.5184 9.5 41.9184 9.8 40.9184C10 40.0184 10.2 39.1184 10.2 39.1184C10.3 38.6184 10.5 38.1184 10.6 37.6184C11.3 36.0184 12 34.4184 12.8 32.9184C13.6 31.4184 16.4 30.0184 20.1 29.0184C23.3 28.2184 27.2 27.8184 31 28.0184L32.7 24.9184C32.3 24.9184 31.9 24.8184 31.5 24.8184C27.2 24.5184 22.8 25.0184 19.2 25.9184C17.9 26.2184 16.7 26.6184 15.6 27.1184C20.3 20.2184 27 14.8184 34.9 11.6184C43 8.31836 51.9 7.51836 60.1 9.61836L76.4 14.2184C75.5 13.3184 73.7 12.2184 72.7 11.5184C72.5 11.3184 72.3 11.2184 72 11.0184C60.5 3.71836 46.1 3.31836 33.6 8.41836C20.7 13.7184 10.5 24.5184 7 38.2184C5 45.6184 4.5 51.7184 5.5 56.4184C5.8 58.8184 6.4 61.3184 7.2 63.6184C10.7 74.3184 18 84.0184 27.8 89.6184C36.7 94.7184 48.1 96.7184 61.9 92.9184L49.8 91.5184C42.9 91.8184 36 90.4184 29.5 86.7184Z" fill="black"></path>
    <path d="M83.8 79.625C81.6 82.425 78.8 84.825 75.7 86.725C72.5 88.825 68.9 90.425 65.4 91.525C61.2 92.825 57.1 92.925 53.4 92.025C47.6 90.725 42.6 87.225 38.5 82.325C34.5 77.525 31.3 71.325 29.3 64.625C28.9 63.325 28.6 62.025 28.3 60.625C24.6 51.725 15.7 47.025 10.7 44.425C10.1 44.125 9.5 43.825 9 43.525C9.2 42.525 9.4 41.425 9.7 40.325C10 40.525 10.9 40.725 12.3 41.425C16.2 43.425 22.3 46.625 26.9 52.025C26.5 46.625 26.8 41.225 27.9 36.125C29.9 27.425 34 20.925 39.4 16.425C43.3 13.125 47.8 10.925 52.5 9.825C57.2 8.725 62.1 8.725 66.8 9.825C73.3 11.325 79.4 14.825 84 20.225C85.3 21.725 86.6 23.625 87.8 25.825C89.1 28.125 90.3 30.625 91.3 33.125C92.3 35.525 93.1 37.925 93.7 40.225C94.3 42.425 94.6 44.425 94.7 46.225C94.9 50.725 94.9 55.625 93.5 61.225C92.1 66.825 89.3 72.925 83.8 79.625ZM31.5 59.725C31.6 60.025 32.2 62.825 32.8 64.525C34.8 70.425 37.5 75.825 41 80.125C44.7 84.525 49.1 87.625 54.1 88.725C57.3 89.425 60.8 89.325 64.4 88.225C67.6 87.225 70.9 85.825 73.8 83.825C76.6 82.025 79.1 79.925 81.1 77.425C83 75.025 84.6 72.825 85.9 70.625C78.9 63.125 75.2 54.625 73.9 46.225C72.4 36.525 74.2 26.825 77.6 18.625C74.2 15.825 70.2 14.025 66.1 13.025C61.9 12.025 57.5 12.025 53.3 13.025C49.1 14.025 45.1 15.925 41.6 18.925C36.8 22.925 33.1 28.925 31.3 36.825C29.6 44.125 29.8 52.125 31.5 59.725ZM87 66.225L87.8 67.225C88.9 64.825 89.8 62.625 90.3 60.425C91.6 55.325 91.7 50.725 91.4 46.525C91.3 45.025 91 43.225 90.5 41.225C89.9 39.125 89.2 36.825 88.2 34.525C87.2 32.125 86.1 29.725 84.9 27.625C83.8 25.625 82.6 23.825 81.5 22.525C81.2 22.225 80.9 21.825 80.6 21.525C80.5 21.725 80.4 21.925 80.3 22.025C80.3 22.125 80.2 22.225 80.2 22.325C77.6 29.525 76.3 37.625 77.6 45.825C78.7 52.725 81.6 59.825 87 66.225Z" fill="#4EB857"></path>
</svg>